# xmcd
#
# Track frame offsets:
# 225
# 21682
# 39066
# 64597
# 77382
# 101139
# 120185
# 132631
# 158101
# 167726
#
# Disc length: 2286 seconds
#
#
# Revision: 0
# Processed by: cddbd v1.5.1PL0 Copyright (c) Steve Scherf et al.
# Submitted via: FreeRIP 2.70 
#
DISCID=7808eb0a
DTITLE=Canibus - My Name Is Nobody [Mix Tape]
DYEAR=2003
DGENRE=Hip-Hop
TTITLE0=Intro/My Name Is Nobody
TTITLE1=Stupid Producers
TTITLE2=The Dungeon (Featuring Kurupt)
TTITLE3=U Know Who
TTITLE4=Broke Ass
TTITLE5=Get Off Ya Knees
TTITLE6=Who Stopped Ya
TTITLE7=My Home Atlanta
TTITLE8=Rip Is Alive
TTITLE9=Outro
EXTD=
EXTT0=
EXTT1=
EXTT2=
EXTT3=
EXTT4=
EXTT5=
EXTT6=
EXTT7=
EXTT8=
EXTT9=
PLAYORDER=
